{"title":"Godzilla vs Megalon (1973)","uid":5618994,"size":1216335960,"categoryP":"video","categoryS":"movies","magnet":"?xt=urn:btih:744238b260aa59bcfc4e8b5c81388d4883acd367&amp;dn=Godzilla+vs+Megalon+%281973%29&amp;tr=udp%3A%2F%2Ftracker.openbittorrent.com%3A80&amp;tr=udp%3A%2F%2Fopen.demonii.com%3A1337&amp;tr=udp%3A%2F%2Ftracker.coppersurfer.tk%3A6969&amp;tr=udp%3A%2F%2Fexodus.desync.com%3A6969","seeders":0,"leechers":3,"uploader":"Beebe85","files":-1,"time":1276186829,"description":"Godzilla vs Megalon (1973) DVDRip Original Japanese version.\n &lt;a href=&quot;\nhttp://www.imdb.com/title/tt0070122/&quot; rel=&quot;nofollow&quot; target=&quot;_NEW&quot;&gt;\nhttp://www.imdb.com/title/tt0070122/&lt;/a&gt;\n\n\n\nGeneral\nComplete name                    : Godzilla vs Megalon (1973)GVSMEGALON.Title2.avi\nFormat                           : AVI\nFormat/Info                      : Audio Video Interleave\nFile size                        : 1.13 GiB\nDuration                         : 1h 21mn\nOverall bit rate                 : 1 985 Kbps\nMovie name                       : GVSMEGALON.Title2.DVDRip\nWriting application              : Lavf52.33.0\nOriginal source form/Name        : GVSMEGALON\n\nVideo\nID                               : 0\nFormat                           : MPEG-4 Visual\nFormat profile                   : Simple@L3\nFormat settings, BVOP            : No\nFormat settings, QPel            : No\nFormat settings, GMC             : No warppoints\nFormat settings, Matrix          : Default (H.263)\nCodec ID                         : XVID\nCodec ID/Hint                    : XviD\nDuration                         : 1h 21mn\nBit rate                         : 1525 Kbps\nWidth                            : 720 pixels\nHeight                           : 292 pixels\nDisplay aspect ratio             : 2.466\nFrame rate                       : 29.970 fps\nResolution                       : 24 bits\nColorimetry                      : 4:2:0\nScan type                        : Progressive\nBits/(Pixel*Frame)               : 0.242\nStream size                      : 890 MiB (77%)\nWriting library                  : XviD 1.2.1 (UTC 2008-12-04)\n\nAudio\nID                               : 1\nFormat                           : AC-3\nFormat/Info                      : Audio Coding 3\nCodec ID                         : 2000\nDuration                         : 1h 21mn\nBit rate mode                    : Constant\nBit rate                         : 448 Kbps\nChannel(s)                       : 6 channels\nChannel positions                : Front: L C R, Surround: L R, LFE\nSampling rate                    : 48.0 KHz\nStream size                      : 261 MiB (23%)\nAlignment                        : Aligned on interleaves\nInterleave, duration             : 32 ms (0.96 video frame)\nInterleave, preload duration     : 32 ms\n\n","torrent":{"xt":"urn:btih:744238b260aa59bcfc4e8b5c81388d4883acd367","amp;dn":"Godzilla+vs+Megalon+%281973%29","amp;tr":["udp%3A%2F%2Ftracker.openbittorrent.com%3A80","udp%3A%2F%2Fopen.demonii.com%3A1337","udp%3A%2F%2Ftracker.coppersurfer.tk%3A6969","udp%3A%2F%2Fexodus.desync.com%3A6969"],"infoHash":"744238b260aa59bcfc4e8b5c81388d4883acd367","infoHashBuffer":{"type":"Buffer","data":[116,66,56,178,96,170,89,188,252,78,139,92,129,56,141,72,131,172,211,103]},"announce":[],"urlList":[]}}